<?xml version="1.0" encoding="utf-8"?>
<svg version="1.1" id="Layer_1" xmlns="http://www.w3.org/2000/svg" xmlns:xlink="http://www.w3.org/1999/xlink" x="0px" y="0px"
	 viewBox="0 0 90 100" style="enable-background:new 0 0 90 100;" xml:space="preserve">
<style type="text/css">
	.st0{fill:#FFFFFF;}
</style>
<path id="path4" class="st0" d="M85.4,77.9c-1.5,3.5-3.3,6.7-5.4,9.7c-2.8,4-5.1,6.8-6.9,8.4c-2.8,2.5-5.7,3.8-8.9,3.9
	c-2.3,0-5-0.6-8.2-2c-3.2-1.3-6.2-2-8.9-2c-2.8,0-5.9,0.6-9.1,2c-3.2,1.3-5.9,2-7.9,2.1c-3,0.1-6.1-1.2-9.1-4
	c-1.9-1.7-4.3-4.6-7.2-8.7c-3.1-4.4-5.7-9.4-7.7-15.2C4,65.8,2.9,59.8,2.9,54c0-6.7,1.4-12.5,4.3-17.3c2.3-3.9,5.3-7,9.1-9.2
	c3.8-2.3,7.9-3.4,12.3-3.5c2.4,0,5.6,0.7,9.5,2.2c3.9,1.5,6.4,2.2,7.6,2.2c0.8,0,3.6-0.9,8.4-2.6c4.5-1.6,8.3-2.3,11.4-2
	c8.4,0.7,14.7,4,18.9,10c-7.5,4.6-11.2,10.9-11.2,19.1c0.1,6.4,2.4,11.7,6.9,15.9c2.1,2,4.4,3.5,6.9,4.5
	C86.6,74.9,86,76.4,85.4,77.9L85.4,77.9z M66.1,2c0,5-1.8,9.7-5.5,14c-4.4,5.1-9.7,8.1-15.5,7.6C45,23,45,22.4,45,21.7
	c0-4.8,2.1-9.9,5.8-14.1c1.9-2.1,4.2-3.9,7.1-5.3c2.9-1.4,5.5-2.2,8.1-2.3C66,0.7,66.1,1.3,66.1,2L66.1,2z"/>
</svg>
