<?xml version="1.0" standalone="no"?>
<!DOCTYPE svg PUBLIC "-//W3C//DTD SVG 20010904//EN"
 "http://www.w3.org/TR/2001/REC-SVG-20010904/DTD/svg10.dtd">
<svg version="1.0" xmlns="http://www.w3.org/2000/svg"
 width="1200.000000pt" height="1200.000000pt" viewBox="0 0 1200.000000 1200.000000"
 preserveAspectRatio="xMidYMid meet">
<metadata>
Created by potrace 1.11, written by Peter Selinger 2001-2013
</metadata>
<g transform="translate(0.000000,1200.000000) scale(0.100000,-0.100000)"
fill="#000000" stroke="none">
<path d="M5937 8555 c-18 -12 -238 -226 -490 -476 -481 -476 -480 -476 -469
-549 3 -17 90 -110 262 -282 157 -156 260 -267 262 -280 8 -52 -11 -91 -70
-151 -54 -54 -65 -60 -110 -65 -59 -5 -36 -24 -328 266 -178 176 -174 173
-274 186 -87 12 -110 15 -190 26 -141 18 -164 21 -190 25 -14 2 -50 7 -80 10
-30 3 -66 8 -80 10 -46 7 -105 15 -150 20 -25 3 -79 10 -120 15 -42 6 -94 13
-115 15 -73 9 -120 16 -145 20 -14 2 -49 7 -79 10 -30 4 -61 8 -70 10 -9 1
-43 6 -76 9 -33 4 -71 8 -85 11 -14 2 -47 7 -75 10 -27 3 -79 10 -115 15 -36
5 -81 11 -100 14 -19 3 -57 8 -85 11 -27 3 -61 8 -75 10 -14 2 -83 11 -155 20
-135 17 -167 21 -225 29 -19 3 -73 10 -120 16 -47 5 -95 12 -107 14 -12 3 -46
7 -75 10 -29 4 -64 8 -78 11 -14 2 -52 7 -85 10 -33 3 -67 8 -75 10 -8 2 -40
6 -70 10 -30 3 -66 7 -80 10 -14 2 -43 6 -65 9 -101 12 -354 45 -382 50 -10 2
-45 7 -78 10 -62 8 -105 13 -165 21 -19 3 -53 7 -75 10 -22 3 -56 8 -75 10
-19 3 -57 7 -85 10 -27 3 -61 7 -75 10 -14 2 -43 7 -65 9 -87 11 -211 27 -235
31 -28 4 -71 10 -185 24 -44 6 -102 14 -130 17 -82 12 -109 11 -135 -2 -45
-22 -64 -52 -67 -107 l-2 -52 528 -526 c291 -289 535 -539 543 -555 33 -65
-23 -164 -93 -164 -100 0 -168 -96 -125 -178 8 -15 233 -244 500 -509 337
-334 496 -485 519 -492 26 -9 366 -95 417 -106 8 -2 609 -152 1335 -335 726
-182 1329 -333 1340 -335 80 -18 153 -39 172 -49 13 -6 81 -86 153 -176 72
-91 136 -172 143 -180 7 -8 26 -33 42 -55 16 -22 32 -42 35 -45 3 -3 57 -70
120 -150 132 -167 112 -145 215 -250 44 -45 91 -88 105 -95 30 -15 85 -11 115
9 44 29 232 242 377 427 15 18 66 84 114 144 47 61 98 125 113 144 14 19 40
51 56 71 17 20 44 55 60 76 62 80 71 85 240 128 33 8 71 17 85 20 14 3 97 23
185 46 88 22 169 43 180 45 11 3 371 93 800 201 429 107 789 197 800 200 132
27 1065 268 1080 278 12 8 243 234 513 503 487 483 492 488 492 528 -1 75 -42
121 -120 131 -102 14 -154 106 -103 184 9 14 250 257 536 540 489 486 519 517
524 556 10 75 -50 145 -120 139 -37 -3 -140 -15 -177 -21 -41 -6 -171 -23
-225 -29 -27 -3 -61 -8 -75 -10 -14 -2 -97 -13 -185 -25 -88 -11 -173 -23
-190 -25 -16 -2 -52 -7 -80 -10 -66 -8 -113 -14 -150 -20 -16 -3 -52 -7 -80
-10 -27 -3 -61 -8 -75 -10 -14 -3 -47 -7 -75 -10 -59 -7 -269 -35 -305 -40
-14 -2 -97 -13 -185 -25 -88 -11 -180 -23 -205 -27 -25 -3 -56 -7 -70 -8 -14
-2 -43 -5 -65 -9 -37 -5 -223 -29 -325 -42 -25 -3 -90 -12 -145 -19 -55 -8
-122 -17 -150 -20 -27 -3 -61 -8 -75 -10 -23 -4 -141 -19 -235 -31 -22 -2 -51
-7 -65 -9 -14 -2 -47 -7 -75 -10 -59 -7 -200 -25 -235 -30 -14 -2 -49 -7 -79
-10 -30 -4 -62 -8 -71 -10 -9 -2 -41 -6 -71 -9 -57 -7 -64 -7 -234 -31 -60 -8
-132 -17 -160 -20 -27 -3 -61 -8 -75 -10 -14 -3 -52 -7 -85 -10 -33 -4 -67 -8
-75 -10 -8 -3 -37 -7 -65 -10 -27 -3 -66 -8 -85 -10 -49 -8 -97 -14 -155 -21
-27 -3 -63 -10 -80 -17 -16 -6 -124 -105 -240 -219 -219 -217 -235 -228 -302
-214 -37 9 -140 112 -152 152 -18 62 3 89 258 342 261 258 278 282 258 349 -8
25 -128 150 -471 489 -254 251 -472 463 -485 472 -35 24 -87 23 -124 -3z"/>
</g>
</svg>
