<?xml version="1.0" encoding="utf-8"?>
<!-- Generator: Adobe Illustrator 25.2.1, SVG Export Plug-In . SVG Version: 6.00 Build 0)  -->
<svg version="1.1" baseProfile="basic" id="Layer_1"
	 xmlns="http://www.w3.org/2000/svg" xmlns:xlink="http://www.w3.org/1999/xlink" x="0px" y="0px" viewBox="0 0 400 64"
	 xml:space="preserve">
<g>
	<rect x="264.23" y="14.46" fill="none" width="99.37" height="29.83"/>
	<text transform="matrix(1 0 0 1 264.2313 23.9549)"><tspan x="0" y="0" fill="#FFFFFF" font-family="'Sora-SemiBold'" font-size="13px">N</tspan><tspan x="11.4" y="0" fill="#FFFFFF" font-family="'Sora-SemiBold'" font-size="13px">O</tspan><tspan x="22.61" y="0" fill="#FFFFFF" font-family="'Sora-SemiBold'" font-size="13px">W IN</tspan><tspan x="0" y="20" fill="#FFFFFF" font-family="'Sora-Bold'" font-size="18px">BE</tspan><tspan x="23.51" y="20" fill="#FFFFFF" font-family="'Sora-Bold'" font-size="18px">T</tspan><tspan x="33.64" y="20" fill="#FFFFFF" font-family="'Sora-Bold'" font-size="18px">A T</tspan><tspan x="63.16" y="20" fill="#FFFFFF" font-family="'Sora-Bold'" font-size="18px">E</tspan><tspan x="73.94" y="20" fill="#FFFFFF" font-family="'Sora-Bold'" font-size="18px">S</tspan><tspan x="85.75" y="20" fill="#FFFFFF" font-family="'Sora-Bold'" font-size="18px">T</tspan></text>
</g>
<g>
	<polygon fill="#FFDA00" points="400,0 20,0 0,20 0,64 381.61,64 400,45.61 	"/>
</g>
<g>
	<g>
		<rect x="36.45" y="20.48" fill="none" width="152.31" height="23.05"/>
		<text transform="matrix(1 0 0 1 40.0965 42.3765)"><tspan x="0" y="0" font-family="'Sora-Bold'" font-size="30px">S</tspan><tspan x="19.68" y="0" font-family="'Sora-Bold'" font-size="30px" letter-spacing="-1">T</tspan><tspan x="36.57" y="0" font-family="'Sora-Bold'" font-size="30px">AKING</tspan></text>
		<rect x="207.12" y="17.08" fill="none" width="99.37" height="29.83"/>
		<text transform="matrix(1 0 0 1 207.1168 26.5744)"><tspan x="0" y="0" font-family="'Sora-SemiBold'" font-size="13px">N</tspan><tspan x="11.4" y="0" font-family="'Sora-SemiBold'" font-size="13px">O</tspan><tspan x="22.61" y="0" font-family="'Sora-SemiBold'" font-size="13px">W IN</tspan><tspan x="0" y="20" font-family="'Sora-Bold'" font-size="18px">BE</tspan><tspan x="23.51" y="20" font-family="'Sora-Bold'" font-size="18px">T</tspan><tspan x="33.64" y="20" font-family="'Sora-Bold'" font-size="18px">A T</tspan><tspan x="63.16" y="20" font-family="'Sora-Bold'" font-size="18px">E</tspan><tspan x="73.94" y="20" font-family="'Sora-Bold'" font-size="18px">S</tspan><tspan x="85.75" y="20" font-family="'Sora-Bold'" font-size="18px">T</tspan></text>
		<line fill="none" stroke="#000000" stroke-miterlimit="10" x1="195.51" y1="14.88" x2="195.51" y2="49.12"/>
	</g>
	<polygon points="347.76,39.42 363.55,24.58 331.98,24.58 	"/>
</g>
</svg>
